<?xml version="1.0" encoding="UTF-8"?>
<svg width="20px" height="13px" viewBox="0 0 20 13" version="1.1" xmlns="http://www.w3.org/2000/svg" xmlns:xlink="http://www.w3.org/1999/xlink">
    <title>behance-icon</title>
    <g id="Page-1" stroke="none" stroke-width="1" fill="none" fill-rule="evenodd">
        <g id="Home---Large" transform="translate(-668.000000, -591.000000)" fill="#ADADAD" fill-rule="nonzero">
            <g id="behance-icon" transform="translate(668.000000, 591.000000)">
                <path d="M5.58482829,0.267401333 C6.10192602,0.256753884 6.61815526,0.314664215 7.120041,0.439620707 C7.58749359,0.523270118 7.97129677,0.695489493 8.31573552,0.907073296 C8.65713632,1.12009786 8.92503772,1.43264949 9.08334188,1.80261404 C9.26149978,2.23450184 9.34860619,2.698511 9.33921066,3.16560738 C9.33921066,3.75607381 9.21127627,4.27273193 8.9111225,4.65653511 C8.65525372,5.04033829 8.222245,5.37985648 7.71542799,5.64064582 C8.36889083,5.80686273 8.94239802,6.1990789 9.33429011,6.74777037 C9.67872886,7.25950794 9.89031266,7.89917991 9.89031266,8.61758073 C9.89882401,9.14883489 9.78253322,9.67467151 9.55079446,10.1527934 C9.3340394,10.5817573 9.01246143,10.9490332 8.61588929,11.2205536 C8.19992616,11.4961992 7.73848766,11.6961003 7.25289595,11.81102 C6.75125468,11.9416504 6.2359588,12.0126687 5.71768324,12.0226038 L0.00984110712,12.0226038 L0.00984110712,0.267401333 L5.58482829,0.267401333 Z M5.24038954,5.04033829 C5.70784213,5.04033829 6.09164531,4.9124039 6.39179908,4.69589954 C6.69195284,4.47939518 6.81988724,4.10543311 6.81988724,3.62813942 C6.8271652,3.39358777 6.78351843,3.1602454 6.69195284,2.94418247 C6.60830343,2.7719631 6.48036904,2.64894926 6.30814967,2.51609431 C6.13593029,2.4324449 5.96371092,2.34387494 5.75212711,2.30451051 C5.54054331,2.26514608 5.32403895,2.25530497 5.06324962,2.25530497 L2.60297283,2.25530497 L2.60297283,5.02557663 L5.24038954,5.04033829 Z M5.36340338,10.0839057 C5.60663689,10.0793091 5.8488623,10.0512966 6.08672476,10.0002563 C6.51393371,9.91561031 6.88458831,9.65239182 7.10527934,9.27693491 C7.18892875,9.0653511 7.27749872,8.80948232 7.27749872,8.50932855 C7.27749872,7.91886212 7.10527934,7.48585341 6.76576115,7.18077909 C6.4213224,6.9249103 5.95386981,6.79697591 5.40276781,6.79697591 L2.59805228,6.79697591 L2.59805228,10.0789851 L5.36340338,10.0839057 Z M13.5954895,10.0347002 C13.9399282,10.3791389 14.4467453,10.5464377 15.1307022,10.5464377 C15.5653142,10.5521175 15.9923709,10.4325416 16.3608406,10.201999 C16.6472796,10.0172653 16.8704602,9.74944858 17.0005126,9.43439262 L19.0917478,9.43439262 C18.7473091,10.4578678 18.2404921,11.1811891 17.5565351,11.6486417 C16.8676576,12.0767299 16.0656074,12.3375617 15.0814967,12.3375617 C14.4538605,12.340102 13.8313083,12.2249382 13.2461302,11.998001 C12.7212077,11.8019959 12.2529555,11.4791216 11.8831369,11.0581753 C11.485051,10.6685321 11.1921855,10.184373 11.0318811,9.65089698 C10.8183663,9.06314883 10.7165678,8.44067578 10.7317273,7.8155305 C10.7317273,7.17585853 10.8153767,6.58539211 11.0269605,6.024449 C11.2308042,5.48822233 11.5347108,4.99562651 11.9225013,4.5728857 C12.3121559,4.17486144 12.7749447,3.85575439 13.2854946,3.63305997 C13.8551751,3.4053563 14.463074,3.28845267 15.0765761,3.28862104 C15.7998975,3.28862104 16.4395695,3.41655561 16.995592,3.71670938 C17.5516146,4.01686315 17.9797027,4.35638134 18.3241415,4.86811891 C18.6723346,5.35891918 18.9321083,5.90677541 19.0917478,6.48698104 C19.1753972,7.07744746 19.2196822,7.68267555 19.1753972,8.35679139 L13.0050231,8.35679139 C12.9893893,8.96511951 13.1997577,9.55765733 13.5954895,10.0199385 L13.5954895,10.0347002 Z M16.2821117,5.55699641 C15.9868785,5.2617632 15.5145054,5.08954382 14.9535623,5.08954382 C14.5697591,5.08954382 14.2646848,5.17319323 14.0186571,5.30112763 C13.7726294,5.42906202 13.5905689,5.59636084 13.4281907,5.76858022 C13.2756486,5.93333421 13.1732354,6.13816056 13.1329575,6.35904664 C13.093593,6.56570989 13.049308,6.74284982 13.049308,6.9150692 L16.8873398,6.9150692 C16.8456374,6.40775545 16.6341497,5.92930791 16.2870323,5.55699641 L16.2821117,5.55699641 Z M12.542491,1.07929267 L17.315428,1.07929267 L17.315428,2.2307022 L12.542491,2.2307022 L12.542491,1.07929267 Z" id="Shape"></path>
            </g>
        </g>
    </g>
</svg>