<?xml version="1.0" encoding="UTF-8"?>
<svg width="16px" height="16px" viewBox="0 0 16 16" version="1.1" xmlns="http://www.w3.org/2000/svg" xmlns:xlink="http://www.w3.org/1999/xlink">
    <title>linkedin-icon</title>
    <g id="Page-1" stroke="none" stroke-width="1" fill="none" fill-rule="evenodd">
        <g id="Home---Large" transform="translate(-756.000000, -589.000000)" fill="#ADADAD" fill-rule="nonzero">
            <g id="linkedin-icon" transform="translate(756.000000, 589.000000)">
                <path d="M0.5066,5.43796 L3.74,5.43796 L3.74,15.82156 L0.5066,15.82156 L0.5066,5.43796 Z M2.12092,0.269958886 C3.15248,0.269958886 3.99092,1.1084 3.99092,2.13996 C3.99092,3.17152 3.15248,4.012 2.1216,4.012 C1.0885209,4.00975749 0.2514977,3.17303822 0.24888,2.13996 C0.24888,1.64365151 0.446177005,1.16770028 0.797311371,0.816948547 C1.14844574,0.466196819 1.6246118,0.269418573 2.12092,0.269958886 M5.75892,5.43796 L8.85428,5.43796 L8.85428,6.85712 L8.89712,6.85712 C9.32824,6.04112 10.38088,5.18024 11.95712,5.18024 C15.2252,5.18024 15.82836,7.33108 15.82836,10.12656 L15.82836,15.82224 L12.60312,15.82224 L12.60312,10.7712 C12.60312,9.5676 12.58136,8.0172 10.92624,8.0172 C9.24664,8.0172 8.98824,9.3296 8.98824,10.6828 L8.98824,15.81952 L5.76368,15.81952 L5.76368,5.43592 L5.75892,5.43796 Z" id="Shape"></path>
            </g>
        </g>
    </g>
</svg>